<?xml version="1.0" encoding="UTF-8"?>
<svg width="585px" height="585px" viewBox="0 0 585 585" version="1.1" xmlns="http://www.w3.org/2000/svg" xmlns:xlink="http://www.w3.org/1999/xlink">
    <!-- Generator: Sketch 41 (35326) - http://www.bohemiancoding.com/sketch -->
    <title>Rectangle</title>
    <desc>Created with Sketch.</desc>
    <defs></defs>
    <g id="Page-1" stroke="none" stroke-width="1" fill="none" fill-rule="evenodd">
        <rect id="Rectangle" fill="#FBFBFB" x="0" y="0" width="585" height="585" rx="95"></rect>
        <g id="scuba-diving-dive-svgrepo-com" transform="translate(36.000000, 58.000000)" fill="#000000">
            <g id="Page-1">
                <g id="scuba-diving-dive-svgrepo-com">
                    <g id="Layer_1">
                        <g id="Group">
                            <g id="Shape">
                                <g id="Group">
                                    <path d="M418.489,300.742 C389.54,312.881 378.724,325.169 371.577,333.275 C366.158,339.44 364.11,341.744 339.364,341.744 L332.815,341.744 C330.618,333.659 326.692,326.043 321.146,319.472 C310.138,306.523 294.074,299.077 277.071,299.077 L235.066,299.077 C218.063,299.077 202.021,306.522 191.013,319.472 C185.445,326.043 181.52,333.659 179.344,341.744 L172.773,341.744 C148.026,341.744 146,339.44 140.581,333.275 C133.434,325.168 122.618,312.902 93.669,300.742 C82.81,296.198 70.288,301.254 65.744,312.155 C61.179,323.014 66.277,335.515 77.136,340.08 C97.083,348.443 102.907,355.077 108.56,361.499 C122.512,377.328 135.099,384.411 172.773,384.411 L181.114,384.411 L187.301,421.467 C191.952,449.435 215.909,469.744 244.261,469.744 L267.877,469.744 C296.25,469.744 320.208,449.435 324.837,421.488 L331.024,384.411 L339.365,384.411 C377.04,384.411 389.626,377.328 403.6,361.478 C409.232,355.078 415.077,348.443 434.981,340.081 C445.861,335.516 450.96,323.014 446.416,312.156 C441.87,301.275 429.283,296.219 418.489,300.742 Z" id="Shape"></path>
                                    <path d="M495.218,66.378 C489.543,50.25 477.49,37.343 462.151,31.007 C391.58,1.652 263.538,0.522 258.482,0.5 L249.245,0.415 C198.109,0.415 103.837,4.554 46.92,32.308 C32.84,39.177 22.195,51.231 17.032,66.121 C4.851,100.66 -11.939,166.046 12.573,216.03 C22.237,235.721 38.834,250.739 59.314,258.27 C74.034,263.689 104.434,272.777 142.749,272.777 C150.877,272.777 159.005,272.393 167.069,271.582 C189.682,269.321 211.954,260.169 231.453,245.107 L234.866,242.483 L236.978,238.728 C243.442,227.293 250.183,216.221 256.093,206.941 C261.981,216.221 268.722,227.293 275.208,238.728 L277.299,242.483 L280.712,245.107 C300.211,260.168 322.483,269.32 345.096,271.582 C353.139,272.393 361.288,272.777 369.437,272.777 C407.773,272.777 438.152,263.689 452.808,258.27 C473.309,250.739 489.928,235.742 499.571,216.051 C524.082,166.133 507.336,100.832 495.218,66.378 Z" id="Shape"></path>
                                </g>
                            </g>
                        </g>
                    </g>
                </g>
            </g>
        </g>
    </g>
</svg>